<svg width="14" height="10" viewBox="0 0 14 10" fill="none" xmlns="http://www.w3.org/2000/svg">
<path fill-rule="evenodd" clip-rule="evenodd" d="M0.833336 0C0.373096 0 0 0.373096 0 0.833333C0 1.29357 0.373096 1.66667 0.833336 1.66667H12.5C12.9602 1.66667 13.3333 1.29357 13.3333 0.833333C13.3333 0.373096 12.9602 0 12.5 0H0.833336ZM0 9.16667C0 8.70643 0.373096 8.33333 0.833336 8.33333H12.5C12.9602 8.33333 13.3333 8.70643 13.3333 9.16667C13.3333 9.6269 12.9602 10 12.5 10H0.833336C0.373096 10 0 9.6269 0 9.16667Z" fill="#1C294D"/>
<path fill-rule="evenodd" clip-rule="evenodd" d="M0 4.83334C0 4.3731 0.373096 4 0.833336 4H8.33334C8.79357 4 9.16667 4.3731 9.16667 4.83334C9.16667 5.29357 8.79357 5.66667 8.33334 5.66667H0.833336C0.373096 5.66667 0 5.29357 0 4.83334Z" fill="#FC6E1D"/>
</svg>
